# xmcd CD database file
#
# Track frame offsets:
#	150
#	20413
#	34776
#	60632
#	74791
#	93633
#	107529
#	123734
#	138578
#	160699
#	175576
#	189208
#	203988
#	227976
#	250027
#	263521
#
# Disc length: 3640 seconds
#
# Revision: 0
# Processed by: cddbd v1.5.1PL0 Copyright (c) Steve Scherf et al.
# Submitted via: CDex 1.51
#
DISCID=dd0e3610
DTITLE=Take Five - Best of Jazz CD 2
DYEAR=2004
DGENRE=Jazz
TTITLE0=Anita O'Day - Sweet Georgia
TTITLE1=Louis Armstrong - I Can't Believe That You're In Love With Me
TTITLE2=The Chico Hamilton Quintet - Blue Sands
TTITLE3=Herbie Mann - Love Chant
TTITLE4=Nina Simone - I Loves You Porgy
TTITLE5=Charlie Parker - Parker's Mood
TTITLE6=Quincy Jones Orchestra - Take Five
TTITLE7=Duke Ellington Orchestra - I'm Beginning To See The Light
TTITLE8=Miles Davis - Tenderly
TTITLE9=Mel Torme - Little White Lies
TTITLE10=Django Reinhardt and Stephanie Grappelli - Nuages
TTITLE11=Ella Fitzgerald - How High The Moon
TTITLE12=Dinah Washington - Blue Gardenia
TTITLE13=Lester Young - I Can't Get Started
TTITLE14=Coleman Hawkins - Indian Summer
TTITLE15=Tony Bennett with the Count Basie Orchestra - Jeepers Creepers
EXTD=YEAR: 2004
EXTT0=
EXTT1=
EXTT2=
EXTT3=
EXTT4=
EXTT5=
EXTT6=
EXTT7=
EXTT8=
EXTT9=
EXTT10=
EXTT11=
EXTT12=
EXTT13=
EXTT14=
EXTT15=
PLAYORDER=
